<?xml version="1.0" standalone="no"?>
<!DOCTYPE svg PUBLIC "-//W3C//DTD SVG 1.1//EN"
"http://www.w3.org/Graphics/SVG/1.1/DTD/svg11.dtd">

<svg width="486" height="420" view_box="0 0 486 420"
xmlns="http://www.w3.org/2000/svg"
xmlns:link="http://www.w3.org/1999/xlink">\n\n<desc>Généré par Mocodo 2.3.7 le Mon, 17 May 2021 02:08:28</desc>

<rect id="frame" x="0" y="0" width="486" height="420" fill="#fefeec" stroke="none" stroke-width="0"/>

<!-- Association est écrit -->
<line x1="246" y1="183" x2="246" y2="44" stroke="#060100" stroke-width="1"/>
<text x="251.0" y="95" fill="#060100" font-family="Courier New" font-size="12">1,1</text>
<line x1="427" y1="44" x2="246" y2="44" stroke="#060100" stroke-width="1"/>
<text x="364" y="60.0" fill="#060100" font-family="Courier New" font-size="12">0,N</text>
<g id="association-est écrit">
	<path d="M 278 18 a 14 14 90 0 1 14 14 V 44 h -92 V 32 a 14 14 90 0 1 14 -14" fill="#081a84" stroke="#081a84" stroke-width="0"/>
	<path d="M 292 44.0 v 12 a 14 14 90 0 1 -14 14 H 214 a 14 14 90 0 1 -14 -14 V 44.0 H 92" fill="#fefeec" stroke="#fefeec" stroke-width="0"/>
	<rect x="200" y="18" width="92" height="52" fill="none" rx="14" stroke="#060100" stroke-width="1.5"/>
	<line x1="200" y1="44" x2="292" y2="44" stroke="#060100" stroke-width="1"/>
	<text x="207" y="36.6" fill="#fefeec" font-family="Courier New" font-size="14">est écrit</text>
</g>

<!-- Association appartient -->
<line x1="246" y1="183" x2="427" y2="183" stroke="#060100" stroke-width="1"/>
<text x="349" y="199.0" fill="#060100" font-family="Courier New" font-size="12">1,N</text>
<line x1="427" y1="349" x2="427" y2="183" stroke="#060100" stroke-width="1"/>
<text x="432.0" y="315" fill="#060100" font-family="Courier New" font-size="12">0,N</text>
<g id="association-appartient">
	<path d="M 463 157 a 14 14 90 0 1 14 14 V 183 h -100 V 171 a 14 14 90 0 1 14 -14" fill="#081a84" stroke="#081a84" stroke-width="0"/>
	<path d="M 477 183.0 v 12 a 14 14 90 0 1 -14 14 H 391 a 14 14 90 0 1 -14 -14 V 183.0 H 100" fill="#fefeec" stroke="#fefeec" stroke-width="0"/>
	<rect x="377" y="157" width="100" height="52" fill="none" rx="14" stroke="#060100" stroke-width="1.5"/>
	<line x1="377" y1="183" x2="477" y2="183" stroke="#060100" stroke-width="1"/>
	<text x="384" y="175.6" fill="#fefeec" font-family="Courier New" font-size="14">appartient</text>
</g>

<!-- Association a écrit -->
<line x1="86" y1="349" x2="246" y2="349" stroke="#060100" stroke-width="1"/>
<text x="168" y="365.0" fill="#060100" font-family="Courier New" font-size="12">1,N</text>
<line x1="246" y1="183" x2="246" y2="349" stroke="#060100" stroke-width="1"/>
<text x="251.0" y="279" fill="#060100" font-family="Courier New" font-size="12">1,N</text>
<g id="association-a écrit">
	<path d="M 269 323 a 14 14 90 0 1 14 14 V 349 h -74 V 337 a 14 14 90 0 1 14 -14" fill="#081a84" stroke="#081a84" stroke-width="0"/>
	<path d="M 283 349.0 v 12 a 14 14 90 0 1 -14 14 H 223 a 14 14 90 0 1 -14 -14 V 349.0 H 74" fill="#fefeec" stroke="#fefeec" stroke-width="0"/>
	<rect x="209" y="323" width="74" height="52" fill="none" rx="14" stroke="#060100" stroke-width="1.5"/>
	<line x1="209" y1="349" x2="283" y2="349" stroke="#060100" stroke-width="1"/>
	<text x="216" y="341.6" fill="#fefeec" font-family="Courier New" font-size="14">a écrit</text>
</g>

<!-- Association edite -->
<line x1="86" y1="44" x2="86" y2="183" stroke="#060100" stroke-width="1"/>
<text x="91.0" y="95" fill="#060100" font-family="Courier New" font-size="12">1,n</text>
<line x1="246" y1="183" x2="86" y2="183" stroke="#060100" stroke-width="1"/>
<text x="120" y="199.0" fill="#060100" font-family="Courier New" font-size="12">1,1</text>
<g id="association-edite">
	<path d="M 101 157 a 14 14 90 0 1 14 14 V 183 h -58 V 171 a 14 14 90 0 1 14 -14" fill="#081a84" stroke="#081a84" stroke-width="0"/>
	<path d="M 115 183.0 v 12 a 14 14 90 0 1 -14 14 H 71 a 14 14 90 0 1 -14 -14 V 183.0 H 58" fill="#fefeec" stroke="#fefeec" stroke-width="0"/>
	<rect x="57" y="157" width="58" height="52" fill="none" rx="14" stroke="#060100" stroke-width="1.5"/>
	<line x1="57" y1="183" x2="115" y2="183" stroke="#060100" stroke-width="1"/>
	<text x="64" y="175.6" fill="#fefeec" font-family="Courier New" font-size="14">edite</text>
</g>

<!-- Entity LANGUE -->
<g id="entity-LANGUE">
	<g id="frame-LANGUE">
		<rect x="392" y="18" width="70" height="26" fill="#c6281b" stroke="#c6281b" stroke-width="0"/>
		<rect x="392" y="44.0" width="70" height="26" fill="#fced5f" stroke="#fced5f" stroke-width="0"/>
		<rect x="392" y="18" width="70" height="52" fill="none" stroke="#060100" stroke-width="1.5"/>
		<line x1="392" y1="44" x2="462" y2="44" stroke="#060100" stroke-width="1"/>
	</g>
	<text x="401" y="36.6" fill="#fefeec" font-family="Courier New" font-size="14">LANGUE</text>
	<text x="397" y="62.6" fill="#060100" font-family="Courier New" font-size="14">libellé</text>
	<line x1="397" y1="65.0" x2="457" y2="65.0" stroke="#060100" stroke-width="1"/>
</g>

<!-- Entity GENRE -->
<g id="entity-GENRE">
	<g id="frame-GENRE">
		<rect x="392" y="323" width="70" height="26" fill="#c6281b" stroke="#c6281b" stroke-width="0"/>
		<rect x="392" y="349.0" width="70" height="26" fill="#fced5f" stroke="#fced5f" stroke-width="0"/>
		<rect x="392" y="323" width="70" height="52" fill="none" stroke="#060100" stroke-width="1.5"/>
		<line x1="392" y1="349" x2="462" y2="349" stroke="#060100" stroke-width="1"/>
	</g>
	<text x="405" y="341.6" fill="#fefeec" font-family="Courier New" font-size="14">GENRE</text>
	<text x="397" y="367.6" fill="#060100" font-family="Courier New" font-size="14">libellé</text>
	<line x1="397" y1="370.0" x2="457" y2="370.0" stroke="#060100" stroke-width="1"/>
</g>

<!-- Entity LIVRE -->
<g id="entity-LIVRE">
	<g id="frame-LIVRE">
		<rect x="148" y="103" width="196" height="26" fill="#c6281b" stroke="#c6281b" stroke-width="0"/>
		<rect x="148" y="129.0" width="196" height="134" fill="#fced5f" stroke="#fced5f" stroke-width="0"/>
		<rect x="148" y="103" width="196" height="160" fill="none" stroke="#060100" stroke-width="1.5"/>
		<line x1="148" y1="129" x2="344" y2="129" stroke="#060100" stroke-width="1"/>
	</g>
	<text x="224" y="121.6" fill="#fefeec" font-family="Courier New" font-size="14">LIVRE</text>
	<text x="153" y="147.6" fill="#060100" font-family="Courier New" font-size="14">reference</text>
	<line x1="153" y1="150.0" x2="230" y2="150.0" stroke="#060100" stroke-width="1"/>
	<text x="153" y="165.6" fill="#060100" font-family="Courier New" font-size="14">titre</text>
	<text x="153" y="183.6" fill="#060100" font-family="Courier New" font-size="14">année de parution</text>
	<text x="153" y="201.6" fill="#060100" font-family="Courier New" font-size="14">nombre de pages</text>
	<text x="153" y="219.6" fill="#060100" font-family="Courier New" font-size="14">nombre de chapitres</text>
	<text x="153" y="237.6" fill="#060100" font-family="Courier New" font-size="14">première de couverture</text>
	<text x="153" y="255.6" fill="#060100" font-family="Courier New" font-size="14">image de couverture</text>
</g>

<!-- Entity AUTEUR -->
<g id="entity-AUTEUR">
	<g id="frame-AUTEUR">
		<rect x="9" y="287" width="154" height="26" fill="#c6281b" stroke="#c6281b" stroke-width="0"/>
		<rect x="9" y="313.0" width="154" height="98" fill="#fced5f" stroke="#fced5f" stroke-width="0"/>
		<rect x="9" y="287" width="154" height="124" fill="none" stroke="#060100" stroke-width="1.5"/>
		<line x1="9" y1="313" x2="163" y2="313" stroke="#060100" stroke-width="1"/>
	</g>
	<text x="60" y="305.6" fill="#fefeec" font-family="Courier New" font-size="14">AUTEUR</text>
	<text x="14" y="331.6" fill="#060100" font-family="Courier New" font-size="14">prénom</text>
	<line x1="14" y1="334.0" x2="66" y2="334.0" stroke="#060100" stroke-width="1"/>
	<text x="14" y="349.6" fill="#060100" font-family="Courier New" font-size="14">nom</text>
	<text x="14" y="367.6" fill="#060100" font-family="Courier New" font-size="14">nationalité</text>
	<text x="14" y="385.6" fill="#060100" font-family="Courier New" font-size="14">date de naissance</text>
	<text x="14" y="403.6" fill="#060100" font-family="Courier New" font-size="14">date de mort</text>
</g>

<!-- Entity EDITEUR -->
<g id="entity-EDITEUR">
	<g id="frame-EDITEUR">
		<rect x="34" y="9" width="104" height="26" fill="#c6281b" stroke="#c6281b" stroke-width="0"/>
		<rect x="34" y="35.0" width="104" height="44" fill="#fced5f" stroke="#fced5f" stroke-width="0"/>
		<rect x="34" y="9" width="104" height="70" fill="none" stroke="#060100" stroke-width="1.5"/>
		<line x1="34" y1="35" x2="138" y2="35" stroke="#060100" stroke-width="1"/>
	</g>
	<text x="56" y="27.6" fill="#fefeec" font-family="Courier New" font-size="14">EDITEUR</text>
	<text x="39" y="53.6" fill="#060100" font-family="Courier New" font-size="14">nom</text>
	<line x1="39" y1="56.0" x2="65" y2="56.0" stroke="#060100" stroke-width="1"/>
	<text x="39" y="71.6" fill="#060100" font-family="Courier New" font-size="14">nationalité</text>
</g>
</svg>